<svg width="1440" height="1024" viewBox="0 0 1440 1024" fill="none" xmlns="http://www.w3.org/2000/svg">
<rect y="-53.7684" width="1440" height="1097.54" fill="#000B6F"/>
<path opacity="0.6" fill-rule="evenodd" clip-rule="evenodd" d="M723.013 1092C1031.92 1092 1282.34 824.714 1282.34 495C1282.34 165.286 1031.92 -102 723.013 -102C414.103 -102 163.682 165.286 163.682 495C163.682 824.714 414.103 1092 723.013 1092Z" fill="#4D39B3"/>
<path fill-rule="evenodd" clip-rule="evenodd" d="M722.617 865.151C914.365 865.151 1069.81 699.24 1069.81 494.578C1069.81 289.917 914.365 124.005 722.617 124.005C530.869 124.005 375.427 289.917 375.427 494.578C375.427 699.24 530.869 865.151 722.617 865.151Z" fill="url(#paint0_linear_266_6426)"/>
<path fill-rule="evenodd" clip-rule="evenodd" d="M323.52 943.726C337.847 943.726 349.461 931.33 349.461 916.038C349.461 900.747 337.847 888.35 323.52 888.35C309.193 888.35 297.579 900.747 297.579 916.038C297.579 931.33 309.193 943.726 323.52 943.726Z" stroke="white" stroke-width="2"/>
<path fill-rule="evenodd" clip-rule="evenodd" d="M917.2 95.8145C920.872 95.8145 923.849 92.637 923.849 88.7174C923.849 84.7977 920.872 81.6203 917.2 81.6203C913.528 81.6203 910.551 84.7977 910.551 88.7174C910.551 92.637 913.528 95.8145 917.2 95.8145Z" stroke="white" stroke-width="2"/>
<path fill-rule="evenodd" clip-rule="evenodd" d="M822.807 789.277C826.479 789.277 829.456 786.1 829.456 782.18C829.456 778.261 826.479 775.083 822.807 775.083C819.134 775.083 816.157 778.261 816.157 782.18C816.157 786.1 819.134 789.277 822.807 789.277Z" stroke="white" stroke-width="2"/>
<path fill-rule="evenodd" clip-rule="evenodd" d="M1291.55 925.869C1296.64 925.869 1300.76 921.467 1300.76 916.038C1300.76 910.609 1296.64 906.207 1291.55 906.207C1286.47 906.207 1282.34 910.609 1282.34 916.038C1282.34 921.467 1286.47 925.869 1291.55 925.869Z" stroke="white" stroke-width="2"/>
<path fill-rule="evenodd" clip-rule="evenodd" d="M933.06 909.786C938.147 909.786 942.27 905.385 942.27 899.956C942.27 894.526 938.147 890.125 933.06 890.125C927.973 890.125 923.849 894.526 923.849 899.956C923.849 905.385 927.973 909.786 933.06 909.786Z" stroke="white" stroke-width="2"/>
<path fill-rule="evenodd" clip-rule="evenodd" d="M1235.32 121.842C1240.41 121.842 1244.53 117.441 1244.53 112.011C1244.53 106.582 1240.41 102.18 1235.32 102.18C1230.23 102.18 1226.11 106.582 1226.11 112.011C1226.11 117.441 1230.23 121.842 1235.32 121.842Z" stroke="white" stroke-width="2"/>
<path fill-rule="evenodd" clip-rule="evenodd" d="M323.52 407.296C328.607 407.296 332.731 402.894 332.731 397.465C332.731 392.036 328.607 387.634 323.52 387.634C318.433 387.634 314.31 392.036 314.31 397.465C314.31 402.894 318.433 407.296 323.52 407.296Z" stroke="white" stroke-width="2"/>
<path fill-rule="evenodd" clip-rule="evenodd" d="M314.31 102.18C322.591 102.18 329.304 95.0148 329.304 86.1757C329.304 77.3365 322.591 70.171 314.31 70.171C306.028 70.171 299.315 77.3365 299.315 86.1757C299.315 95.0148 306.028 102.18 314.31 102.18Z" stroke="white" stroke-width="2"/>
<defs>
<linearGradient id="paint0_linear_266_6426" x1="1590.59" y1="865.151" x2="685.767" y2="-191.151" gradientUnits="userSpaceOnUse">
<stop stop-color="white"/>
<stop offset="1" stop-color="#F9E4DD"/>
</linearGradient>
</defs>
</svg>
